<svg width="13" height="13" viewBox="0 0 13 13" fill="none" xmlns="http://www.w3.org/2000/svg">
    <mask id="path-1-inside-1" fill="white">
        <path d="M12.7575 10.4066L9.63017 8.18669C9.30631 7.9623 9.34379 7.9249 9.06897 8.29888L8.10196 9.49103C8.00503 9.61858 7.82882 9.65558 7.68859 9.57784L7.54511 9.49891C7.06947 9.24019 6.47767 8.91809 5.28528 7.72774C4.0929 6.53738 3.76949 5.94634 3.51024 5.47256L3.43156 5.32938C3.35259 5.18946 3.38897 5.01286 3.51683 4.91535L4.73582 3.91353C5.04592 3.67107 5.04259 3.70533 4.82546 3.3773L2.62392 0.269617C2.4014 -0.0644222 2.47959 -0.0649707 2.1351 0.141691L0.827442 0.990253C0.487218 1.18986 0.237608 1.51313 0.130954 1.89232C-0.258962 3.3101 0.0343682 5.75698 3.64627 9.36188C6.51946 12.2289 8.65842 13 10.1286 13C10.4669 13.0014 10.804 12.9575 11.1306 12.8693C11.5106 12.763 11.8346 12.5139 12.0345 12.1743L12.8355 10.9448C13.0429 10.6009 13.0924 10.6288 12.7575 10.4066ZM12.4182 10.7763L11.6687 11.9566C11.5251 12.2018 11.2921 12.382 11.0184 12.4596C9.70687 12.8189 7.41549 12.5213 3.94792 9.06085C0.480347 5.60041 0.18212 3.31394 0.542206 2.00489C0.620054 1.73143 0.800884 1.49859 1.04682 1.35513L2.22956 0.607147C2.37904 0.517392 2.32297 0.511034 2.41953 0.655989L3.50749 2.21103L4.39475 3.48919C4.48904 3.63148 4.48304 3.5978 4.34853 3.70308L3.25423 4.58024C2.95923 4.80535 2.87498 5.21267 3.05661 5.53594L3.13359 5.67551C3.40605 6.1742 3.7448 6.79458 4.98153 8.02857C6.21826 9.26253 6.83973 9.60061 7.33922 9.87249L7.47928 9.94951C7.80319 10.1307 8.21136 10.0467 8.43694 9.75229L9.29092 8.63531C9.39645 8.50115 9.36263 8.4952 9.50526 8.58919L12.3443 10.5618C12.4896 10.6581 12.5083 10.6272 12.4182 10.7763Z"/>
    </mask>
    <path d="M12.7575 10.4066L9.63017 8.18669C9.30631 7.9623 9.34379 7.9249 9.06897 8.29888L8.10196 9.49103C8.00503 9.61858 7.82882 9.65558 7.68859 9.57784L7.54511 9.49891C7.06947 9.24019 6.47767 8.91809 5.28528 7.72774C4.0929 6.53738 3.76949 5.94634 3.51024 5.47256L3.43156 5.32938C3.35259 5.18946 3.38897 5.01286 3.51683 4.91535L4.73582 3.91353C5.04592 3.67107 5.04259 3.70533 4.82546 3.3773L2.62392 0.269617C2.4014 -0.0644222 2.47959 -0.0649707 2.1351 0.141691L0.827442 0.990253C0.487218 1.18986 0.237608 1.51313 0.130954 1.89232C-0.258962 3.3101 0.0343682 5.75698 3.64627 9.36188C6.51946 12.2289 8.65842 13 10.1286 13C10.4669 13.0014 10.804 12.9575 11.1306 12.8693C11.5106 12.763 11.8346 12.5139 12.0345 12.1743L12.8355 10.9448C13.0429 10.6009 13.0924 10.6288 12.7575 10.4066ZM12.4182 10.7763L11.6687 11.9566C11.5251 12.2018 11.2921 12.382 11.0184 12.4596C9.70687 12.8189 7.41549 12.5213 3.94792 9.06085C0.480347 5.60041 0.18212 3.31394 0.542206 2.00489C0.620054 1.73143 0.800884 1.49859 1.04682 1.35513L2.22956 0.607147C2.37904 0.517392 2.32297 0.511034 2.41953 0.655989L3.50749 2.21103L4.39475 3.48919C4.48904 3.63148 4.48304 3.5978 4.34853 3.70308L3.25423 4.58024C2.95923 4.80535 2.87498 5.21267 3.05661 5.53594L3.13359 5.67551C3.40605 6.1742 3.7448 6.79458 4.98153 8.02857C6.21826 9.26253 6.83973 9.60061 7.33922 9.87249L7.47928 9.94951C7.80319 10.1307 8.21136 10.0467 8.43694 9.75229L9.29092 8.63531C9.39645 8.50115 9.36263 8.4952 9.50526 8.58919L12.3443 10.5618C12.4896 10.6581 12.5083 10.6272 12.4182 10.7763Z" fill="black"/>
    <path d="M12.7575 10.4066L11.5998 12.0375L11.6255 12.0557L11.6517 12.0731L12.7575 10.4066ZM9.63017 8.18669L10.7879 6.5558L10.7786 6.54921L10.7692 6.54272L9.63017 8.18669ZM9.06897 8.29888L10.6222 9.5588L10.6523 9.52169L10.6806 9.48319L9.06897 8.29888ZM8.10196 9.49103L6.54871 8.23111L6.52877 8.2557L6.50961 8.2809L8.10196 9.49103ZM7.68859 9.57784L8.65827 7.82863L8.65263 7.82552L7.68859 9.57784ZM7.54511 9.49891L8.50916 7.74657L8.50077 7.74201L7.54511 9.49891ZM3.51024 5.47256L5.26474 4.5125L5.26308 4.50946L3.51024 5.47256ZM3.43156 5.32938L5.1844 4.36628L5.1789 4.35627L5.17328 4.34632L3.43156 5.32938ZM3.51683 4.91535L4.72961 6.50569L4.75856 6.48361L4.78669 6.46049L3.51683 4.91535ZM4.73582 3.91353L3.50389 2.33799L3.48474 2.35296L3.46596 2.3684L4.73582 3.91353ZM4.82546 3.3773L6.49321 2.27338L6.47574 2.24699L6.45745 2.22117L4.82546 3.3773ZM2.62392 0.269617L0.959442 1.37845L0.975352 1.40233L0.991941 1.42574L2.62392 0.269617ZM2.1351 0.141691L1.10624 -1.57337L1.07599 -1.55523L1.0464 -1.53603L2.1351 0.141691ZM0.827442 0.990253L1.8395 2.71529L1.87835 2.69249L1.91614 2.66797L0.827442 0.990253ZM0.130954 1.89232L-1.79437 1.35079L-1.79745 1.36197L0.130954 1.89232ZM3.64627 9.36188L2.23343 10.7775L2.23357 10.7776L3.64627 9.36188ZM10.1286 13L10.1371 11H10.1286V13ZM11.1306 12.8693L11.6516 14.8003L11.6605 14.7979L11.6694 14.7954L11.1306 12.8693ZM12.0345 12.1743L10.3588 11.0826L10.334 11.1207L10.3109 11.1598L12.0345 12.1743ZM12.8355 10.9448L14.5113 12.0365L14.5302 12.0074L14.5482 11.9777L12.8355 10.9448ZM12.4182 10.7763L14.1065 11.8485L14.1186 11.8295L14.1302 11.8102L12.4182 10.7763ZM11.6687 11.9566L9.98032 10.8845L9.96099 10.9149L9.94276 10.9461L11.6687 11.9566ZM11.0184 12.4596L11.5469 14.3885L11.5554 14.3862L11.5639 14.3838L11.0184 12.4596ZM0.542206 2.00489L-1.38136 1.45728L-1.3838 1.46585L-1.38617 1.47444L0.542206 2.00489ZM1.04682 1.35513L2.05454 3.0827L2.08552 3.06464L2.11582 3.04547L1.04682 1.35513ZM2.22956 0.607147L1.19998 -1.10748L1.18013 -1.09557L1.16056 -1.08319L2.22956 0.607147ZM2.41953 0.655989L0.755033 1.76479L0.767695 1.78379L0.780787 1.80251L2.41953 0.655989ZM3.50749 2.21103L5.15045 1.07053L5.14623 1.06451L3.50749 2.21103ZM4.39475 3.48919L6.06193 2.38442L6.05001 2.36644L6.0377 2.34871L4.39475 3.48919ZM4.34853 3.70308L3.11578 2.12818L3.10667 2.13531L3.09764 2.14254L4.34853 3.70308ZM3.25423 4.58024L4.4675 6.17021L4.48648 6.15572L4.50512 6.14078L3.25423 4.58024ZM3.05661 5.53594L4.80793 4.57007L4.80411 4.56316L4.80024 4.55627L3.05661 5.53594ZM3.13359 5.67551L4.88872 4.71656L4.8849 4.70964L3.13359 5.67551ZM4.98153 8.02857L3.56889 9.44435L3.5689 9.44436L4.98153 8.02857ZM7.33922 9.87249L8.30291 8.11996L8.29539 8.11586L7.33922 9.87249ZM7.47928 9.94951L8.45583 8.20413L8.44941 8.20053L8.44296 8.19699L7.47928 9.94951ZM8.43694 9.75229L10.0245 10.9687L10.0258 10.967L8.43694 9.75229ZM9.29092 8.63531L7.71896 7.39881L7.71045 7.40963L7.70208 7.42057L9.29092 8.63531ZM9.50526 8.58919L10.6465 6.94674L10.6263 6.93272L10.6058 6.91921L9.50526 8.58919ZM12.3443 10.5618L11.2031 12.2043L11.2213 12.2169L11.2398 12.2292L12.3443 10.5618ZM13.9152 8.77573L10.7879 6.5558L8.47249 9.81757L11.5998 12.0375L13.9152 8.77573ZM10.7692 6.54272C10.7436 6.52496 10.7258 6.51206 10.686 6.48368C10.6591 6.46453 10.5894 6.4145 10.5114 6.36533C10.4365 6.31804 9.85443 5.92337 9.04842 6.03848C8.24994 6.15252 7.80291 6.68313 7.727 6.76921C7.61153 6.90015 7.49317 7.06578 7.45732 7.11457L10.6806 9.48319C10.7822 9.34499 10.7622 9.37506 10.7271 9.41483C10.7011 9.44436 10.6048 9.55234 10.4471 9.66541C10.2731 9.79014 9.99188 9.94433 9.61394 9.99831C9.23382 10.0526 8.91768 9.98243 8.71142 9.90893C8.52754 9.84341 8.40421 9.76541 8.37755 9.7486C8.34592 9.72864 8.32854 9.71543 8.3627 9.7398C8.38395 9.75497 8.43582 9.79232 8.49114 9.83065L10.7692 6.54272ZM7.51571 7.03896L6.54871 8.23111L9.65522 10.7509L10.6222 9.5588L7.51571 7.03896ZM6.50961 8.2809C7.01492 7.61599 7.93039 7.42514 8.65827 7.82864L6.71891 11.3271C7.72724 11.886 8.99513 11.6212 9.69431 10.7012L6.50961 8.2809ZM8.65263 7.82552L8.50915 7.74659L6.58107 11.2512L6.72455 11.3302L8.65263 7.82552ZM8.50077 7.74201C8.28117 7.62256 8.11124 7.52938 7.86746 7.35044C7.61178 7.16275 7.2424 6.8555 6.69829 6.31232L3.87227 9.14315C5.21509 10.4837 5.96564 10.9165 6.58944 11.2558L8.50077 7.74201ZM6.69829 6.31232C6.15409 5.76904 5.84595 5.40003 5.65761 5.14458C5.47802 4.901 5.38448 4.73133 5.26474 4.5125L1.75573 6.43262C2.09567 7.05386 2.52982 7.80298 3.87227 9.14315L6.69829 6.31232ZM5.26308 4.50946L5.1844 4.36628L1.67872 6.29247L1.7574 6.43566L5.26308 4.50946ZM5.17328 4.34632C5.58581 5.0772 5.3946 5.99857 4.72961 6.50569L2.30405 3.32502C1.38333 4.02716 1.11937 5.30171 1.68984 6.31243L5.17328 4.34632ZM4.78669 6.46049L6.00568 5.45867L3.46596 2.3684L2.24697 3.37022L4.78669 6.46049ZM5.96775 5.48908C5.98049 5.47912 6.14149 5.3573 6.25112 5.25836C6.33992 5.17823 6.82189 4.75813 6.94942 4.01644C7.07846 3.26604 6.75719 2.70583 6.69415 2.59259C6.61872 2.45709 6.50437 2.29025 6.49321 2.27338L3.15772 4.48121C3.25512 4.62836 3.22261 4.58025 3.19918 4.53816C3.18814 4.51833 2.88904 4.02622 3.00728 3.33857C3.12403 2.65963 3.56225 2.29692 3.57124 2.28881C3.60107 2.2619 3.6462 2.22672 3.50389 2.33799L5.96775 5.48908ZM6.45745 2.22117L4.25591 -0.88651L0.991941 1.42574L3.19348 4.53342L6.45745 2.22117ZM4.28841 -0.839211C4.27564 -0.858378 4.2638 -0.876954 4.24689 -0.90387C4.23768 -0.918543 4.1995 -0.980079 4.16364 -1.03361C4.13181 -1.08111 4.03857 -1.21975 3.89728 -1.36528C3.74569 -1.52143 3.45967 -1.76907 3.02245 -1.90587C2.12948 -2.18525 1.41659 -1.75439 1.38406 -1.73703C1.30368 -1.69415 1.23159 -1.6499 1.20283 -1.63232C1.159 -1.60553 1.13993 -1.59359 1.10624 -1.57337L3.16396 1.85676C3.3486 1.74599 3.27826 1.78606 3.26698 1.79207C3.24122 1.80582 3.09618 1.88437 2.88438 1.93927C2.63921 2.00283 2.25934 2.04659 1.82805 1.91165C1.4165 1.78288 1.15424 1.55172 1.02732 1.42099C0.910708 1.30088 0.843068 1.1966 0.840586 1.1929C0.834064 1.18316 0.828977 1.17486 0.859425 1.22335C0.882185 1.25959 0.916579 1.3141 0.959442 1.37845L4.28841 -0.839211ZM1.0464 -1.53603L-0.261258 -0.687463L1.91614 2.66797L3.2238 1.81941L1.0464 -1.53603ZM-0.184617 -0.73478C-0.97004 -0.27398 -1.54746 0.473058 -1.79434 1.3508L2.05625 2.43384C2.02268 2.5532 1.94447 2.6537 1.8395 2.71529L-0.184617 -0.73478ZM-1.79745 1.36197C-2.4581 3.76418 -1.6315 6.92004 2.23343 10.7775L5.05911 7.9463C1.70023 4.59393 1.94017 2.85603 2.05936 2.42266L-1.79745 1.36197ZM2.23357 10.7776C5.30126 13.8388 7.91909 15 10.1286 15V11C9.39775 11 7.73766 10.6191 5.05897 7.94616L2.23357 10.7776ZM10.12 14.9999C10.6372 15.0022 11.1523 14.935 11.6516 14.8003L10.6096 10.9384C10.4556 10.9799 10.2967 11.0007 10.1371 11L10.12 14.9999ZM11.6694 14.7954C12.5466 14.55 13.2956 13.9747 13.7581 13.1888L10.3109 11.1598C10.3737 11.0532 10.4747 10.976 10.5918 10.9433L11.6694 14.7954ZM13.7103 13.266L14.5113 12.0365L11.1598 9.85306L10.3588 11.0826L13.7103 13.266ZM14.5482 11.9777C14.5625 11.9539 14.576 11.9324 14.5971 11.8989C14.6119 11.8755 14.6511 11.8138 14.6876 11.751C14.705 11.721 15.0355 11.2116 14.9967 10.5183C14.9487 9.65957 14.4129 9.16597 14.2504 9.02504C14.0907 8.88661 13.9016 8.76551 13.8633 8.74008L11.6517 12.0731C11.7809 12.1588 11.7111 12.1175 11.6299 12.0471C11.5458 11.9742 11.0475 11.5368 11.003 10.7418C10.9836 10.3947 11.063 10.1254 11.1173 9.98056C11.1684 9.84404 11.2226 9.75254 11.2282 9.74274C11.2362 9.72908 11.2401 9.72338 11.2138 9.76518C11.1938 9.79682 11.1604 9.84964 11.1229 9.91186L14.5482 11.9777ZM10.7299 9.70418L9.98032 10.8845L13.357 13.0288L14.1065 11.8485L10.7299 9.70418ZM9.94276 10.9461C10.0605 10.745 10.2508 10.5984 10.4729 10.5354L11.5639 14.3838C12.3334 14.1656 12.9898 13.6585 13.3946 12.9672L9.94276 10.9461ZM10.4899 10.5307C10.1841 10.6145 8.60212 10.88 5.36068 7.64519L2.53516 10.4765C6.22887 14.1626 9.22962 15.0234 11.5469 14.3885L10.4899 10.5307ZM5.36068 7.64519C2.11831 4.40949 2.38834 2.83431 2.47058 2.53533L-1.38617 1.47444C-2.0241 3.79358 -1.15762 6.79133 2.53516 10.4765L5.36068 7.64519ZM2.46578 2.5525C2.40196 2.77666 2.25411 2.96629 2.05454 3.0827L0.0391007 -0.372437C-0.652344 0.0308943 -1.16185 0.686202 -1.38136 1.45728L2.46578 2.5525ZM2.11582 3.04547L3.29856 2.29748L1.16056 -1.08319L-0.022179 -0.335203L2.11582 3.04547ZM3.25914 2.32178C3.30522 2.29411 3.4731 2.18639 3.37977 2.24557C3.36792 2.25309 3.33456 2.27409 3.28915 2.29923C3.24571 2.32328 3.16221 2.36744 3.05084 2.41048C2.82854 2.49639 2.33438 2.63862 1.73959 2.44991C1.18621 2.27435 0.883434 1.91478 0.78803 1.79422C0.730828 1.72193 0.691626 1.66159 0.673653 1.63324C0.654717 1.60337 0.641625 1.5807 0.639859 1.57765C0.630811 1.56204 0.686701 1.66221 0.755033 1.76479L4.08404 -0.45281C4.10409 -0.422708 4.13078 -0.376106 4.10041 -0.428486C4.10001 -0.429184 4.03008 -0.554803 3.92478 -0.68788C3.82126 -0.818702 3.51094 -1.18459 2.9492 -1.36281C2.34603 -1.55417 1.84268 -1.41093 1.60895 -1.3206C1.40335 -1.24115 1.25222 -1.14173 1.23768 -1.13251C1.21647 -1.11907 1.19826 -1.10703 1.19264 -1.10332C1.18282 -1.09684 1.18368 -1.09739 1.18162 -1.09605C1.18152 -1.09597 1.18373 -1.09742 1.18725 -1.09965C1.19084 -1.10191 1.19516 -1.10459 1.19998 -1.10748L3.25914 2.32178ZM0.780787 1.80251L1.86874 3.35755L5.14623 1.06451L4.05828 -0.490531L0.780787 1.80251ZM1.86453 3.35151L2.75179 4.62968L6.0377 2.34871L5.15044 1.07054L1.86453 3.35151ZM2.72757 4.59396C2.8067 4.71337 2.74316 4.61847 2.71078 4.56194C2.70677 4.55494 2.28931 3.90638 2.53645 3.05341C2.65165 2.65583 2.86202 2.39451 2.9813 2.26601C3.09274 2.14596 3.19313 2.07018 3.20512 2.06094C3.22061 2.04901 3.2424 2.03311 3.20964 2.05716C3.18957 2.07189 3.15602 2.09668 3.11578 2.12818L5.58128 5.27799C5.57467 5.28316 5.57073 5.28598 5.57637 5.28184C5.57818 5.28051 5.57991 5.27925 5.58338 5.2767C5.58629 5.27458 5.59108 5.27107 5.59617 5.26732C5.60541 5.26053 5.62434 5.24656 5.6464 5.22956C5.67638 5.20646 5.79099 5.11869 5.91295 4.9873C6.04275 4.84746 6.25997 4.57546 6.37843 4.16661C6.6321 3.29112 6.20686 2.61771 6.18166 2.57372C6.13966 2.50041 6.09938 2.44042 6.08971 2.4259C6.0596 2.38072 6.08019 2.41199 6.06193 2.38442L2.72757 4.59396ZM3.09764 2.14254L2.00335 3.0197L4.50512 6.14078L5.59941 5.26362L3.09764 2.14254ZM2.04096 2.99028C0.954588 3.81927 0.642426 5.32213 1.31298 6.5156L4.80024 4.55627C5.10754 5.1032 4.96386 5.79144 4.4675 6.17021L2.04096 2.99028ZM1.3053 6.5018L1.38227 6.64137L4.8849 4.70964L4.80793 4.57007L1.3053 6.5018ZM1.37847 6.63445C1.73042 7.27861 2.17979 8.05833 3.56889 9.44435L6.39418 6.61278C5.82881 6.04868 5.50626 5.66212 5.30718 5.3914C5.11635 5.13192 5.01557 4.94877 4.8887 4.71657L1.37847 6.63445ZM3.5689 9.44436C4.95776 10.8301 5.73843 11.2782 6.38305 11.6291L8.29539 8.11586C8.06273 7.98923 7.87894 7.88847 7.61861 7.6978C7.3471 7.49893 6.95958 7.17693 6.39416 6.61277L3.5689 9.44436ZM6.37554 11.625L6.5156 11.702L8.44296 8.19699L8.3029 8.11997L6.37554 11.625ZM6.50272 11.6949C7.69294 12.3608 9.19363 12.0531 10.0245 10.9687L6.84939 8.53587C7.2291 8.04031 7.91343 7.90065 8.45583 8.20413L6.50272 11.6949ZM10.0258 10.967L10.8798 9.85005L7.70208 7.42057L6.8481 8.53755L10.0258 10.967ZM10.8629 9.87182C10.8945 9.8316 10.9194 9.79807 10.9342 9.77798C10.9584 9.74517 10.9424 9.767 10.9305 9.78241C10.9212 9.7944 10.8452 9.89461 10.725 10.0058C10.5961 10.1249 10.335 10.3339 9.93862 10.4483C9.0895 10.6933 8.44363 10.2798 8.43616 10.2755C8.37998 10.2435 8.2851 10.1803 8.40473 10.2592L10.6058 6.91921C10.5789 6.90153 10.6087 6.92103 10.5643 6.89159C10.5498 6.88198 10.4899 6.84196 10.4167 6.80025C10.3722 6.77486 9.70141 6.35357 8.82973 6.60508C8.42208 6.7227 8.15031 6.93857 8.01005 7.0682C7.87843 7.18984 7.79043 7.30422 7.76726 7.33417C7.75022 7.35617 7.73622 7.37506 7.72943 7.38425C7.72568 7.38932 7.72217 7.3941 7.72005 7.39698C7.71751 7.40043 7.71625 7.40215 7.71493 7.40393C7.71084 7.40949 7.71371 7.40549 7.71896 7.39881L10.8629 9.87182ZM8.36405 10.2316L11.2031 12.2043L13.4855 8.91936L10.6465 6.94674L8.36405 10.2316ZM11.2398 12.2292C11.2946 12.2655 11.4454 12.3582 11.3706 12.3115C11.3655 12.3083 11.2774 12.2547 11.1739 12.1682C11.0684 12.0802 10.8503 11.8802 10.6835 11.5492C10.2717 10.7321 10.5783 10.015 10.6356 9.88526C10.6917 9.75833 10.762 9.64989 10.7062 9.74245L14.1302 11.8102C14.1378 11.7977 14.1599 11.7613 14.1808 11.7249C14.1994 11.6926 14.2471 11.6089 14.2945 11.5016C14.3691 11.3327 14.6789 10.5894 14.2556 9.74927C14.083 9.40678 13.8554 9.19614 13.7367 9.09712C13.62 8.99966 13.515 8.93467 13.489 8.91848C13.4698 8.90645 13.4527 8.89619 13.4458 8.892C13.4352 8.88561 13.435 8.88553 13.432 8.88367C13.4304 8.88269 13.4379 8.88721 13.4488 8.89446L11.2398 12.2292Z" fill="#B40B0B" mask="url(#path-1-inside-1)"/>
</svg>