<svg width="50px" height="50px" viewBox="0 0 50 50" version="1.1" xmlns="http://www.w3.org/2000/svg" xmlns:xlink="http://www.w3.org/1999/xlink">
    <g id="Page-1" stroke="none" stroke-width="1" fill="none" fill-rule="evenodd">
        <g id="WebIntern-PopUp" transform="translate(-522.000000, -2747.000000)" fill="#FF7643" fill-rule="nonzero">
            <g id="linkedin-logo" transform="translate(340.000000, 2747.000000)">
                <g id="facebook" transform="translate(75.000000, 0.000000)">
                    <g id="instagram" transform="translate(107.000000, 0.000000)">
                        <path d="M36.4654541,0 L13.5345459,0 C6.07147217,0 0,6.07147217 0,13.5345459 L0,36.4658355 C0,43.9285278 6.07147217,50 13.5345459,50 L36.4658355,50 C43.9285278,50 50,43.9285278 50,36.4658355 L50,13.5345459 C50,6.07147217 43.9285278,2.77555756e-15 36.4654541,0 Z M47.0687866,36.4658355 C47.0687866,42.3122406 42.3122406,47.0687866 36.4654541,47.0687866 L13.5345459,47.0687866 C7.68775938,47.0687866 2.93121338,42.3122406 2.93121338,36.4658355 L2.93121338,13.5345459 C2.93121338,7.68775938 7.68775938,2.93121338 13.5345459,2.93121338 L36.4658355,2.93121338 C42.3122406,2.93121338 47.0687866,7.68775938 47.0687866,13.5345459 L47.0687866,36.4658355 Z" id="Shape"></path>
                        <path d="M25.4098361,11.4754098 C17.7262475,11.4754098 11.4754098,17.7262475 11.4754098,25.4098361 C11.4754098,33.0934246 17.7262475,39.3442623 25.4098361,39.3442623 C33.0934246,39.3442623 39.3442623,33.0934246 39.3442623,25.4098361 C39.3442623,17.7262475 33.0934246,11.4754098 25.4098361,11.4754098 Z M25.4098361,36.3566753 C19.3740083,36.3566753 14.4629968,31.4460526 14.4629968,25.4098361 C14.4629968,19.3740083 19.3740083,14.4629968 25.4098361,14.4629968 C31.4460526,14.4629968 36.3566753,19.3740083 36.3566753,25.4098361 C36.3566753,31.4460526 31.4460526,36.3566753 25.4098361,36.3566753 Z" id="Shape"></path>
                        <path d="M39.3440688,6.55737705 C37.0840786,6.55737705 35.2459016,8.395941 35.2459016,10.6555442 C35.2459016,12.9155344 37.0840786,14.7540984 39.3440688,14.7540984 C41.604059,14.7540984 43.442623,12.9155344 43.442623,10.6555442 C43.442623,8.39555404 41.604059,6.55737705 39.3440688,6.55737705 Z M39.3440688,11.7801215 C38.7241195,11.7801215 38.2194916,11.2754935 38.2194916,10.6555442 C38.2194916,10.0352079 38.7241195,9.53096687 39.3440688,9.53096687 C39.9644052,9.53096687 40.4690331,10.0352079 40.4690331,10.6555442 C40.4690331,11.2754935 39.9644052,11.7801215 39.3440688,11.7801215 Z" id="Shape"></path>
                    </g>
                </g>
            </g>
        </g>
    </g>
</svg>