<svg width="40px" height="38px" viewBox="0 0 40 38" version="1.1" xmlns="http://www.w3.org/2000/svg" xmlns:xlink="http://www.w3.org/1999/xlink">
    <g id="Page-1" stroke="none" stroke-width="1" fill="none" fill-rule="evenodd">
        <g id="WebIntern-PopUp" transform="translate(-340.000000, -2781.000000)" fill="#FF7643" fill-rule="nonzero">
            <g id="linkedin-logo" transform="translate(340.000000, 2781.000000)">
                <path d="M40,23.2487646 L40,37.9310345 L31.4165987,37.9310345 L31.4165987,24.2320945 C31.4165987,20.7908091 30.1751023,18.4422664 27.0681955,18.4422664 C24.6964662,18.4422664 23.2850485,20.0250121 22.664114,21.5560522 C22.4376764,22.103393 22.3793911,22.8652198 22.3793911,23.6313861 L22.3793911,37.9310345 L13.7931034,37.9310345 C13.7931034,37.9310345 13.9087431,14.7295266 13.7931034,12.3256773 L22.3785531,12.3256773 L22.3785531,15.9551342 C22.361142,15.9822797 22.3385169,16.0115487 22.3221299,16.0378632 L22.3785531,16.0378632 L22.3785531,15.9551342 C23.519214,14.2129321 25.5563147,11.7241379 30.115979,11.7241379 C35.765095,11.7240456 40,15.3837872 40,23.2487646 Z M4.8569983,0 C1.92062856,0 0,1.93566121 0,4.48112164 C0,6.97111176 1.86506203,8.96551724 4.74307297,8.96551724 L4.80040794,8.96551724 C7.79364728,8.96551724 9.65517241,6.97148593 9.65517241,4.48112164 C9.5987682,1.93566121 7.79364728,0 4.8569983,0 Z M0.689655172,37.9310345 L9.65517241,37.9310345 L9.65517241,12.4137931 L0.689655172,12.4137931 L0.689655172,37.9310345 Z" id="LinkedIn"></path>
            </g>
        </g>
    </g>
</svg>
