<svg width="9" height="13" viewBox="0 0 9 13" fill="none" xmlns="http://www.w3.org/2000/svg">
    <mask id="path-1-inside-1" fill="white">
        <path d="M4.54195 2.84888C3.63634 2.84888 2.89923 3.59459 2.89923 4.51077C2.89923 5.42694 3.63634 6.17265 4.54195 6.17265C5.44756 6.17265 6.18467 5.42694 6.18467 4.51077C6.18467 3.59459 5.44756 2.84888 4.54195 2.84888ZM4.54195 5.69783C3.89495 5.69783 3.36858 5.16531 3.36858 4.51077C3.36858 3.85622 3.89495 3.3237 4.54195 3.3237C5.18895 3.3237 5.71532 3.85622 5.71532 4.51077C5.71532 5.16531 5.18895 5.69783 4.54195 5.69783Z"/>
    </mask>
    <path d="M4.54195 2.84888C3.63634 2.84888 2.89923 3.59459 2.89923 4.51077C2.89923 5.42694 3.63634 6.17265 4.54195 6.17265C5.44756 6.17265 6.18467 5.42694 6.18467 4.51077C6.18467 3.59459 5.44756 2.84888 4.54195 2.84888ZM4.54195 5.69783C3.89495 5.69783 3.36858 5.16531 3.36858 4.51077C3.36858 3.85622 3.89495 3.3237 4.54195 3.3237C5.18895 3.3237 5.71532 3.85622 5.71532 4.51077C5.71532 5.16531 5.18895 5.69783 4.54195 5.69783Z" fill="#FF7643"/>
    <path d="M4.54195 0.848877C2.50996 0.848877 0.899231 2.51196 0.899231 4.51077H4.89923C4.89923 4.67722 4.76272 4.84888 4.54195 4.84888V0.848877ZM0.899231 4.51077C0.899231 6.50957 2.50996 8.17265 4.54195 8.17265V4.17265C4.76272 4.17265 4.89923 4.34431 4.89923 4.51077H0.899231ZM4.54195 8.17265C6.57394 8.17265 8.18467 6.50957 8.18467 4.51077H4.18467C4.18467 4.34431 4.32118 4.17265 4.54195 4.17265V8.17265ZM8.18467 4.51077C8.18467 2.51196 6.57394 0.848877 4.54195 0.848877V4.84888C4.32118 4.84888 4.18467 4.67722 4.18467 4.51077H8.18467ZM4.54195 3.69783C5.02133 3.69783 5.36858 4.08268 5.36858 4.51077H1.36858C1.36858 6.24794 2.76857 7.69783 4.54195 7.69783V3.69783ZM5.36858 4.51077C5.36858 4.93885 5.02133 5.3237 4.54195 5.3237V1.3237C2.76857 1.3237 1.36858 2.77359 1.36858 4.51077H5.36858ZM4.54195 5.3237C4.06257 5.3237 3.71532 4.93885 3.71532 4.51077H7.71532C7.71532 2.77359 6.31533 1.3237 4.54195 1.3237V5.3237ZM3.71532 4.51077C3.71532 4.08268 4.06257 3.69783 4.54195 3.69783V7.69783C6.31533 7.69783 7.71532 6.24794 7.71532 4.51077H3.71532Z" fill="#FF7643" mask="url(#path-1-inside-1)"/>
    <mask id="path-3-inside-2" fill="white">
        <path d="M7.68264 1.33355C6.83265 0.473638 5.70246 0 4.50046 0C3.29822 0 2.16826 0.473638 1.31827 1.33355C-0.254751 2.92469 -0.450235 5.91846 0.894919 7.73229L4.50046 13L8.1006 7.73965C9.45115 5.91846 9.25566 2.92469 7.68264 1.33355ZM7.71995 7.46211L4.50046 12.1657L1.2758 7.45475C0.055723 5.80901 0.230555 3.10536 1.65034 1.66925C2.41162 0.899081 3.42377 0.474825 4.50046 0.474825C5.57714 0.474825 6.58929 0.899081 7.35081 1.66925C8.77059 3.10536 8.94542 5.80901 7.71995 7.46211Z"/>
    </mask>
    <path d="M7.68264 1.33355C6.83265 0.473638 5.70246 0 4.50046 0C3.29822 0 2.16826 0.473638 1.31827 1.33355C-0.254751 2.92469 -0.450235 5.91846 0.894919 7.73229L4.50046 13L8.1006 7.73965C9.45115 5.91846 9.25566 2.92469 7.68264 1.33355ZM7.71995 7.46211L4.50046 12.1657L1.2758 7.45475C0.055723 5.80901 0.230555 3.10536 1.65034 1.66925C2.41162 0.899081 3.42377 0.474825 4.50046 0.474825C5.57714 0.474825 6.58929 0.899081 7.35081 1.66925C8.77059 3.10536 8.94542 5.80901 7.71995 7.46211Z" fill="#FF7643"/>
    <path d="M7.68264 1.33355L6.26025 2.73953L6.26035 2.73964L7.68264 1.33355ZM1.31827 1.33355L2.74056 2.73964L2.74066 2.73953L1.31827 1.33355ZM0.894919 7.73229L2.54534 6.60264L2.52394 6.57137L2.50137 6.54094L0.894919 7.73229ZM4.50046 13L2.85003 14.1296L4.50054 16.541L6.15093 14.1296L4.50046 13ZM8.1006 7.73965L6.49412 6.54833L6.47154 6.57879L6.45012 6.61008L8.1006 7.73965ZM7.71995 7.46211L6.11328 6.27106L6.09083 6.30135L6.06954 6.33245L7.71995 7.46211ZM4.50046 12.1657L2.85006 13.2954L4.50049 15.7066L6.15087 13.2954L4.50046 12.1657ZM1.2758 7.45475L2.92619 6.32506L2.90489 6.29395L2.88244 6.26367L1.2758 7.45475ZM1.65034 1.66925L3.07261 3.07535L3.07273 3.07524L1.65034 1.66925ZM7.35081 1.66925L8.77309 0.263143L8.77299 0.263041L7.35081 1.66925ZM9.10503 -0.0724408C7.88184 -1.3099 6.24048 -2 4.50046 -2V2C5.16443 2 5.78346 2.25718 6.26025 2.73953L9.10503 -0.0724408ZM4.50046 -2C2.76014 -2 1.11903 -1.30986 -0.104121 -0.0724408L2.74066 2.73953C3.21749 2.25714 3.8363 2 4.50046 2V-2ZM-0.104016 -0.0725469C-1.29273 1.12986 -1.88096 2.76325 -1.98339 4.31792C-2.0859 5.87371 -1.71672 7.56822 -0.711529 8.92365L2.50137 6.54094C2.16141 6.08253 1.95575 5.37324 2.00795 4.5809C2.06023 3.78743 2.35625 3.12837 2.74056 2.73964L-0.104016 -0.0725469ZM-0.755504 8.86194L2.85003 14.1296L6.15088 11.8704L2.54534 6.60264L-0.755504 8.86194ZM6.15093 14.1296L9.75107 8.86922L6.45012 6.61008L2.84998 11.8704L6.15093 14.1296ZM9.70707 8.93097C10.7139 7.5733 11.0854 5.87795 10.9837 4.32008C10.8821 2.76375 10.2938 1.12999 9.10493 -0.0725469L6.26035 2.73964C6.64453 3.12824 6.94041 3.78694 6.9922 4.58057C7.0439 5.37268 6.83786 6.08481 6.49412 6.54833L9.70707 8.93097ZM6.06954 6.33245L2.85004 11.0361L6.15087 13.2954L9.37037 8.59178L6.06954 6.33245ZM6.15085 11.036L2.92619 6.32506L-0.374597 8.58445L2.85006 13.2954L6.15085 11.036ZM2.88244 6.26367C2.60334 5.88719 2.42505 5.29078 2.46895 4.61255C2.51294 3.93265 2.76562 3.38588 3.07261 3.07535L0.228059 0.263143C-0.884726 1.38873 -1.42936 2.91183 -1.5227 4.35423C-1.61616 5.79829 -1.27182 7.37657 -0.330851 8.64584L2.88244 6.26367ZM3.07273 3.07524C3.46087 2.68257 3.96187 2.47483 4.50046 2.47483V-1.52517C2.88567 -1.52517 1.36237 -0.884406 0.227943 0.263261L3.07273 3.07524ZM4.50046 2.47483C5.03899 2.47483 5.54013 2.68254 5.92864 3.07545L8.77299 0.263041C7.63845 -0.884378 6.11529 -1.52517 4.50046 -1.52517V2.47483ZM5.92853 3.07535C6.23539 3.38573 6.4879 3.9321 6.53144 4.61209C6.57484 5.28997 6.39627 5.88933 6.11328 6.27106L9.32663 8.65316C10.2691 7.3818 10.6159 5.80277 10.5233 4.35652C10.4308 2.91238 9.88602 1.38887 8.77309 0.263143L5.92853 3.07535Z" fill="#FF7643" mask="url(#path-3-inside-2)"/>
</svg>

