<svg width="203" height="34" viewBox="0 0 203 34" fill="none" xmlns="http://www.w3.org/2000/svg">
    <path d="M20.2574 0.238377H28.0334V33.8384H20.2574V0.238377ZM66.8234 0.238377V33.8384H60.4394L43.6874 13.4384V33.8384H36.0074V0.238377H42.4394L59.1434 20.6384V0.238377H66.8234ZM81.7331 6.57438H70.9811V0.238377H100.261V6.57438H89.5091V33.8384H81.7331V6.57438ZM130.461 27.5984V33.8384H104.445V0.238377H129.837V6.47838H112.173V13.7744H127.773V19.8224H112.173V27.5984H130.461ZM158.056 33.8384L151.576 24.4784H151.192H144.424V33.8384H136.648V0.238377H151.192C154.168 0.238377 156.744 0.734377 158.92 1.72638C161.128 2.71838 162.824 4.12638 164.008 5.95038C165.192 7.77438 165.784 9.93438 165.784 12.4304C165.784 14.9264 165.176 17.0864 163.96 18.9104C162.776 20.7024 161.08 22.0784 158.872 23.0384L166.408 33.8384H158.056ZM157.912 12.4304C157.912 10.5424 157.304 9.10238 156.088 8.11038C154.872 7.08638 153.096 6.57438 150.76 6.57438H144.424V18.2864H150.76C153.096 18.2864 154.872 17.7744 156.088 16.7504C157.304 15.7264 157.912 14.2864 157.912 12.4304ZM202.761 0.238377V33.8384H196.377L179.625 13.4384V33.8384H171.945V0.238377H178.377L195.081 20.6384V0.238377H202.761Z" fill="#333333"/>
    <path d="M11.0557 24.6455L4.49023 23.1338V21.0508L14 23.6436V25.4014L7.46973 27.4404L14 29.4443V31.2021L4.49023 33.8037L4.49023 31.7207L10.9854 30.1826L4.49023 28.2314L4.49023 26.623L11.0557 24.6455ZM14.1758 15.4346C14.1758 16.7881 13.751 17.8867 12.9014 18.7305C12.0459 19.5684 10.9092 19.9873 9.49121 19.9873H9.22754C8.27832 19.9873 7.43164 19.8057 6.6875 19.4424C5.9375 19.0732 5.35449 18.5576 4.93848 17.8955C4.52246 17.2334 4.31445 16.4951 4.31445 15.6807C4.31445 14.3857 4.72754 13.3867 5.55371 12.6836C6.37988 11.9746 7.54883 11.6201 9.06055 11.6201H9.92188L9.92188 17.834C10.707 17.7695 11.3281 17.5088 11.7852 17.0518C12.2422 16.5889 12.4707 16.0088 12.4707 15.3115C12.4707 14.333 12.0752 13.5361 11.2842 12.9209L12.3828 11.7695C12.9512 12.1504 13.3936 12.6602 13.71 13.2988C14.0205 13.9316 14.1758 14.6436 14.1758 15.4346ZM6.02832 15.6895C6.02832 16.2754 6.2334 16.75 6.64355 17.1133C7.05371 17.4707 7.625 17.6992 8.35742 17.7988V13.7295H8.19922C7.48438 13.7764 6.94531 13.9668 6.58203 14.3008C6.21289 14.6348 6.02832 15.0977 6.02832 15.6895ZM9.3418 1.60938C10.8184 1.60938 11.9932 1.94043 12.8662 2.60254C13.7393 3.25879 14.1758 4.16406 14.1758 5.31836C14.1758 6.43164 13.7744 7.29883 12.9717 7.91992L14 8.02539V9.95898H0.5L0.5 7.82324H5.4043C4.67773 7.20801 4.31445 6.37891 4.31445 5.33594C4.31445 4.17578 4.74512 3.26465 5.60645 2.60254C6.46777 1.94043 7.67188 1.60938 9.21875 1.60938H9.3418ZM9.15723 3.74512C8.12598 3.74512 7.35254 3.92676 6.83691 4.29004C6.32129 4.65332 6.06348 5.18066 6.06348 5.87207C6.06348 6.79785 6.46777 7.44824 7.27637 7.82324H11.1963C12.0225 7.44238 12.4355 6.78613 12.4355 5.85449C12.4355 5.18652 12.1865 4.6709 11.6885 4.30762C11.1904 3.94434 10.4375 3.75684 9.42969 3.74512H9.15723Z" fill="#FFFFFF"/>
</svg>
